<?xml version="1.0" encoding="UTF-8"?>
<svg xmlns="http://www.w3.org/2000/svg" xmlns:xlink="http://www.w3.org/1999/xlink" width="444pt" height="124pt" viewBox="0 0 444 124" version="1.1">
<g id="surface1">
<path style=" stroke:none;fill-rule:nonzero;fill:rgb(47.499084%,0%,2.69928%);fill-opacity:1;" d="M 71.652344 54.679688 C 70.914063 49.429688 65.882813 45.429688 60.109375 45.429688 C 49.679688 45.429688 45.757813 54.308594 45.757813 63.554688 C 45.757813 72.363281 49.679688 81.246094 60.109375 81.246094 C 67.214844 81.246094 71.210938 76.363281 72.097656 69.40625 L 83.34375 69.40625 C 82.160156 82.582031 73.058594 91.011719 60.109375 91.011719 C 43.757813 91.011719 34.144531 78.804688 34.144531 63.554688 C 34.144531 47.871094 43.757813 35.667969 60.109375 35.667969 C 71.726563 35.667969 81.496094 42.472656 82.902344 54.679688 "/>
<path style=" stroke:none;fill-rule:nonzero;fill:rgb(47.499084%,0%,2.69928%);fill-opacity:1;" d="M 92.523438 89.75 L 104.136719 89.75 L 104.136719 36.921875 L 92.523438 36.921875 Z M 92.523438 89.75 "/>
<path style=" stroke:none;fill-rule:nonzero;fill:rgb(47.499084%,0%,2.69928%);fill-opacity:1;" d="M 115.992188 36.921875 L 132.339844 36.921875 L 144.695313 73.253906 L 144.847656 73.253906 L 156.535156 36.921875 L 172.886719 36.921875 L 172.886719 89.75 L 162.011719 89.75 L 162.011719 52.3125 L 161.863281 52.3125 L 148.914063 89.75 L 139.964844 89.75 L 127.011719 52.683594 L 126.863281 52.683594 L 126.863281 89.75 L 115.992188 89.75 "/>
<path style=" stroke:none;fill-rule:nonzero;fill:rgb(47.499084%,0%,2.69928%);fill-opacity:1;" d="M 196.359375 80.722656 L 208.789063 80.722656 C 213.375 80.722656 217.371094 79.25 217.371094 73.769531 C 217.371094 68.367188 213.964844 66.226563 209.011719 66.226563 L 196.359375 66.226563 Z M 196.359375 58.3125 L 208.121094 58.3125 C 212.191406 58.3125 215.226563 56.457031 215.226563 52.015625 C 215.226563 46.980469 211.378906 45.949219 207.234375 45.949219 L 196.359375 45.949219 Z M 184.742188 36.921875 L 209.601563 36.921875 C 219.664063 36.921875 226.472656 40.179688 226.472656 50.019531 C 226.472656 55.199219 223.882813 58.824219 219.296875 61.042969 C 225.734375 62.894531 228.988281 67.851563 228.988281 74.4375 C 228.988281 85.164063 219.886719 89.75 210.34375 89.75 L 184.742188 89.75 "/>
<path style=" stroke:none;fill-rule:evenodd;fill:rgb(92.89856%,10.998535%,13.699341%);fill-opacity:1;" d="M 300.136719 60.054688 C 302.734375 54.464844 307.632813 45.4375 311.433594 39.609375 C 313.089844 37.070313 314.78125 34.207031 317.296875 32.421875 C 318.386719 31.648438 319.6875 31.128906 321.035156 31.414063 C 321.777344 31.570313 322.445313 31.953125 323.03125 32.417969 C 324.8125 33.832031 322.691406 36.539063 321.851563 37.933594 C 320.503906 40.175781 318.910156 42.261719 317.53125 44.484375 C 314.074219 50.066406 310.703125 55.734375 307.742188 61.679688 C 306.121094 64.929688 304.621094 68.25 303.28125 71.648438 C 302.769531 72.960938 299.476563 80.0625 300.628906 80.738281 C 301.992188 81.527344 304.085938 78.847656 304.929688 78.105469 C 305.652344 77.464844 307.242188 76.074219 308.28125 76.46875 C 310.632813 77.363281 307.785156 81.527344 307.074219 82.679688 C 305.066406 85.941406 302.269531 88.929688 298.371094 89.066406 C 295.109375 89.183594 292.371094 86.628906 292.050781 83.082031 C 291.851563 80.875 292.242188 78.621094 292.730469 76.484375 C 294.070313 70.613281 297.1875 65.34375 300.136719 60.054688 "/>
<path style=" stroke:none;fill-rule:evenodd;fill:rgb(92.89856%,10.998535%,13.699341%);fill-opacity:1;" d="M 289.355469 75.734375 C 289.355469 76.148438 289.257813 76.605469 289.050781 77.070313 C 288.089844 79.21875 285.113281 80.21875 283.269531 81.429688 C 280.167969 83.460938 276.980469 85.359375 273.636719 86.972656 C 267.929688 89.730469 262.753906 92.792969 253.777344 88.738281 C 246.960938 85.640625 245.742188 77.183594 249.003906 68.347656 C 251.800781 60.75 257.175781 54.128906 263.570313 48.367188 C 270.003906 42.582031 277.046875 37.121094 282.175781 36.585938 C 284.011719 36.390625 286.003906 36.660156 287.492188 37.992188 C 290.398438 40.585938 290.027344 45.613281 288.460938 48.910156 C 287.503906 50.914063 286.40625 52.238281 284.292969 52.546875 C 282.480469 52.8125 280.289063 52.207031 280.664063 49.722656 C 280.878906 48.332031 282.433594 45.660156 281.492188 44.332031 C 280.203125 42.507813 275.4375 46.746094 274.371094 47.523438 C 272.339844 49.027344 270.457031 50.761719 268.601563 52.527344 C 265.382813 55.589844 262.730469 59.5625 260.503906 63.527344 C 257.933594 68.113281 255.558594 73.457031 255.503906 78.945313 C 255.488281 80.65625 255.570313 82.621094 256.460938 84.117188 C 258.933594 88.257813 265.164063 85.261719 268.386719 84.085938 C 271.546875 82.945313 274.605469 81.523438 277.566406 79.910156 C 280.628906 78.238281 283.445313 76.230469 286.429688 74.453125 C 288.179688 73.40625 289.351563 74.308594 289.355469 75.734375 "/>
<path style=" stroke:none;fill-rule:evenodd;fill:rgb(92.89856%,10.998535%,13.699341%);fill-opacity:1;" d="M 326.675781 40.542969 C 328.109375 44.558594 329.753906 48.394531 334.347656 49.617188 C 334.351563 45.925781 331.789063 38.660156 326.675781 40.542969 "/>
<path style=" stroke:none;fill-rule:evenodd;fill:rgb(92.89856%,10.998535%,13.699341%);fill-opacity:1;" d="M 326.257813 63.15625 C 326.15625 62.183594 325.648438 61.324219 324.554688 60.394531 C 323.226563 59.269531 321.335938 58.75 320.113281 60.253906 C 319.175781 61.402344 318.789063 62.941406 318.234375 64.277344 C 317.359375 66.382813 316.695313 68.554688 315.925781 70.703125 C 314.277344 75.28125 312.953125 79.976563 312.101563 84.769531 C 313.023438 85.976563 313.769531 87.339844 316.25 87.175781 C 318.53125 82.582031 320.839844 77.996094 322.871094 73.285156 C 323.925781 70.851563 324.90625 68.386719 325.78125 65.882813 C 326.148438 64.832031 326.339844 63.957031 326.257813 63.15625 "/>
<path style=" stroke:none;fill-rule:evenodd;fill:rgb(92.89856%,10.998535%,13.699341%);fill-opacity:1;" d="M 350.382813 73.152344 C 350.242188 73.378906 350.121094 73.558594 350.09375 73.597656 C 349.519531 74.421875 348.8125 75.148438 348.074219 75.832031 C 345.464844 78.238281 343.265625 81.058594 340.515625 83.3125 C 338.535156 84.9375 336.113281 86.003906 333.578125 85.03125 C 330.425781 83.828125 327.652344 79.488281 328.554688 73.617188 C 329.714844 66.070313 335.703125 55.300781 339.566406 52.09375 C 342.410156 49.730469 345.949219 49.882813 348.726563 52.246094 C 350.492188 53.746094 352.839844 56.621094 352.886719 59.082031 C 352.898438 59.730469 352.765625 60.121094 352.535156 60.320313 C 351.878906 60.914063 350.445313 59.917969 349.636719 59.226563 C 348.632813 58.371094 347.527344 57.332031 346.085938 57.640625 C 345.148438 57.84375 344.066406 59.070313 343.371094 59.695313 C 342.304688 60.664063 341.335938 61.734375 340.46875 62.878906 C 338.664063 65.25 337.292969 67.925781 336.242188 70.703125 C 335.730469 72.082031 332.617188 78.316406 335.800781 78.539063 C 336.820313 78.613281 337.71875 78.054688 338.609375 77.742188 C 339.65625 77.378906 340.644531 76.960938 341.695313 76.527344 C 343.214844 75.898438 344.90625 75.125 346.394531 74.246094 C 347.648438 73.507813 349.171875 72.488281 350.816406 72.082031 C 350.992188 72.039063 350.65625 72.714844 350.382813 73.152344 "/>
<path style=" stroke:none;fill-rule:evenodd;fill:rgb(92.89856%,10.998535%,13.699341%);fill-opacity:1;" d="M 385.179688 55.476563 C 384.664063 54.859375 383.605469 53.917969 382.808594 53.714844 C 381.234375 53.308594 378.863281 54.480469 377.574219 55.234375 C 376.042969 56.132813 374.738281 57.332031 373.445313 58.503906 C 370.347656 61.320313 365.824219 64.617188 362.722656 67.652344 C 363.628906 64.867188 364.757813 61.285156 366.09375 58.828125 C 366.945313 57.265625 367.34375 55.722656 368.316406 54.253906 C 369.445313 52.558594 370.46875 50.773438 371.578125 49.0625 C 373.125 46.6875 375.90625 43.550781 376.128906 40.597656 C 376.296875 38.402344 373.363281 35.476563 370.664063 36.316406 C 366.007813 42.75 363.117188 50.601563 359.515625 57.386719 C 357.300781 63.40625 354.140625 69.695313 353.410156 76.105469 C 353.289063 77.1875 353.152344 78.269531 353.042969 79.355469 C 352.851563 81.253906 352.671875 83.234375 353.027344 85.125 C 353.335938 86.777344 354.070313 88.023438 355.488281 88.933594 C 357.851563 90.445313 358.078125 86.511719 358.234375 85.011719 C 358.46875 82.773438 358.980469 80.636719 359.617188 78.542969 L 358.605469 82.757813 C 360.585938 84.148438 361.347656 86.136719 363.644531 86.746094 C 368.015625 87.898438 372.03125 85.257813 375.347656 82.921875 C 376.507813 82.105469 380.445313 80.171875 381.632813 78.167969 C 382.171875 77.261719 382.144531 76.339844 381.03125 75.503906 C 379.75 74.539063 377.675781 76.617188 376.503906 77.3125 C 374.421875 78.554688 372.339844 79.800781 370.128906 80.824219 C 369.40625 81.15625 363.027344 82.941406 362.988281 83.101563 C 363.574219 80.65625 364.445313 78.277344 365.628906 76.035156 C 367.78125 71.964844 370.320313 68.15625 373.890625 65.148438 C 375.625 63.679688 377.453125 62.308594 379.296875 60.960938 C 380.21875 60.285156 381.128906 59.59375 382.066406 58.941406 C 382.890625 58.367188 384.824219 58.460938 385.5 57.789063 C 386.152344 57.144531 385.734375 56.140625 385.179688 55.476563 "/>
<path style=" stroke:none;fill-rule:evenodd;fill:rgb(92.89856%,10.998535%,13.699341%);fill-opacity:1;" d="M 388.320313 64.492188 C 388.46875 63.242188 388.800781 61.992188 389.113281 60.886719 C 389.449219 59.71875 389.871094 58.570313 390.402344 57.472656 C 391.363281 55.472656 392.675781 53.652344 394.320313 52.160156 C 395.914063 50.714844 397.78125 49.601563 399.773438 48.792969 C 401.515625 48.085938 404.832031 46.671875 406.703125 47.347656 C 407.65625 47.6875 410.796875 50.160156 409.578125 51.488281 C 408.320313 52.867188 407.359375 52.414063 405.902344 53.050781 C 401.636719 54.914063 392.199219 61.277344 393.863281 68.0625 C 393.929688 68.332031 394.316406 68.976563 394.511719 69.179688 C 397.492188 72.222656 409.183594 75.410156 403.746094 81.933594 C 401.453125 84.679688 397.628906 86.082031 394.070313 87.777344 C 392.546875 88.5 390.714844 89.402344 388.894531 90.320313 C 387 91.277344 383.414063 94.007813 381.378906 91.863281 C 379.75 90.136719 382.925781 88.621094 384.09375 87.878906 C 385.769531 86.816406 387.464844 85.78125 389.117188 84.671875 C 392.394531 82.464844 395.507813 79.917969 397.632813 76.535156 C 397.902344 76.109375 389.972656 70.359375 389.238281 69.328125 C 388.253906 67.945313 388.117188 66.214844 388.320313 64.492188 "/>
<path style="fill:none;stroke-width:10;stroke-linecap:butt;stroke-linejoin:miter;stroke:rgb(100%,100%,100%);stroke-opacity:1;stroke-miterlimit:4;" d="M 4435 5 L 5 5 L 5 1235 L 4435 1235 Z M 4435 5 " transform="matrix(0.1,0,0,-0.1,0,124)"/>
</g>
</svg>
